HIERARCHY
ROOT Hips
{
	OFFSET 0.00000 0.00000 0.00000
	CHANNELS 6 Xposition Yposition Zposition Zrotation Yrotation Xrotation 
	JOINT LHipJoint
	{
		OFFSET 0 0 0
		CHANNELS 3 Zrotation Yrotation Xrotation
		JOINT LeftUpLeg
		{
			OFFSET 1.27966 -1.91611 0.81506
			CHANNELS 3 Zrotation Yrotation Xrotation
			JOINT LeftLeg
			{
				OFFSET 2.49511 -6.85528 0.00000
				CHANNELS 3 Zrotation Yrotation Xrotation
				JOINT LeftFoot
				{
					OFFSET 2.67286 -7.34045 0.00000
					CHANNELS 3 Zrotation Yrotation Xrotation
					JOINT LeftToeBase
					{
						OFFSET 0.22740 -0.62477 2.32102
						CHANNELS 3 Zrotation Yrotation Xrotation
						End Site
						{
							OFFSET 0.00000 -0.00000 1.20480
						}
					}
				}
			}
		}
	}
	JOINT RHipJoint
	{
		OFFSET 0 0 0
		CHANNELS 3 Zrotation Yrotation Xrotation
		JOINT RightUpLeg
		{
			OFFSET -1.09666 -1.91611 0.81505
			CHANNELS 3 Zrotation Yrotation Xrotation
			JOINT RightLeg
			{
				OFFSET -2.51373 -6.90642 0.00000
				CHANNELS 3 Zrotation Yrotation Xrotation
				JOINT RightFoot
				{
					OFFSET -2.70173 -7.42295 0.00000
					CHANNELS 3 Zrotation Yrotation Xrotation
					JOINT RightToeBase
					{
						OFFSET -0.22214 -0.61032 2.18267
						CHANNELS 3 Zrotation Yrotation Xrotation
						End Site
						{
							OFFSET -0.00000 -0.00000 1.13683
						}
					}
				}
			}
		}
	}
	JOINT LowerBack
	{
		OFFSET 0 0 0
		CHANNELS 3 Zrotation Yrotation Xrotation
		JOINT Spine
		{
			OFFSET -0.00990 2.16804 -0.08389
			CHANNELS 3 Zrotation Yrotation Xrotation
			JOINT Spine1
			{
				OFFSET 0.06407 2.15456 0.07285
				CHANNELS 3 Zrotation Yrotation Xrotation
				JOINT Neck
				{
					OFFSET 0 0 0
					CHANNELS 3 Zrotation Yrotation Xrotation
					JOINT Neck1
					{
						OFFSET -0.16931 1.61602 0.24462
						CHANNELS 3 Zrotation Yrotation Xrotation
						JOINT Head
						{
							OFFSET 0.21556 1.63376 -0.33896
							CHANNELS 3 Zrotation Yrotation Xrotation
							End Site
							{
								OFFSET 0.08444 1.69244 -0.14900
							}
						}
					}
				}
				JOINT LeftShoulder
				{
					OFFSET 0 0 0
					CHANNELS 3 Zrotation Yrotation Xrotation
					JOINT LeftArm
					{
						OFFSET 2.89000 1.40150 -0.54392
						CHANNELS 3 Zrotation Yrotation Xrotation
						JOINT LeftForeArm
						{
							OFFSET 5.10755 -0.00000 0.00000
							CHANNELS 3 Zrotation Yrotation Xrotation
							JOINT LeftHand
							{
								OFFSET 3.36253 -0.00000 0.00000
								CHANNELS 3 Zrotation Yrotation Xrotation
								JOINT LeftFingerBase
								{
									OFFSET 0 0 0
									CHANNELS 3 Zrotation Yrotation Xrotation
									JOINT LeftHandIndex1
									{
										OFFSET 0.61909 -0.00000 0.00000
										CHANNELS 3 Zrotation Yrotation Xrotation
										End Site
										{
											OFFSET 0.49912 -0.00000 0.00000
										}
									}
								}
								JOINT LThumb
								{
									OFFSET 0 0 0
									CHANNELS 3 Zrotation Yrotation Xrotation
									End Site
									{
										OFFSET 0.50675 -0.00000 0.50675
									}
								}
							}
						}
					}
				}
				JOINT RightShoulder
				{
					OFFSET 0 0 0
					CHANNELS 3 Zrotation Yrotation Xrotation
					JOINT RightArm
					{
						OFFSET -2.65771 1.70968 -0.54312
						CHANNELS 3 Zrotation Yrotation Xrotation
						JOINT RightForeArm
						{
							OFFSET -5.27387 -0.00000 0.00000
							CHANNELS 3 Zrotation Yrotation Xrotation
							JOINT RightHand
							{
								OFFSET -3.40144 -0.00000 0.00000
								CHANNELS 3 Zrotation Yrotation Xrotation
								JOINT RightFingerBase
								{
									OFFSET 0 0 0
									CHANNELS 3 Zrotation Yrotation Xrotation
									JOINT RightHandIndex1
									{
										OFFSET -0.74282 -0.00000 0.00000
										CHANNELS 3 Zrotation Yrotation Xrotation
										End Site
										{
											OFFSET -0.59888 -0.00000 0.00000
										}
									}
								}
								JOINT RThumb
								{
									OFFSET 0 0 0
									CHANNELS 3 Zrotation Yrotation Xrotation
									End Site
									{
										OFFSET -0.60803 -0.00000 0.60803
									}
								}
							}
						}
					}
				}
			}
		}
	}
}
MOTION
Frames: 13
Frame Time: .0083333
0.6658 18.2560 -4.8927 -3.7155 2.3113 -2.1064 0.0000 0.0000 0.0000 -15.7048 -1.2993 0.4750 1.1302 6.7521 18.9830 0.4969 -6.7041 -12.6993 0.4640 -4.3692 -12.1178 0.0000 0.0000 0.0000 23.2527 -0.3197 -1.7849 -1.2049 -6.9642 19.6092 -0.5005 -2.3738 -14.4395 -0.6628 5.2066 -14.4989 -0.9458 -0.1850 7.7537 4.1392 -0.1496 0.1117 4.8698 -0.0125 -4.2261 -15.4648 -6.4136 -20.9178 12.7328 -7.3727 22.5854 6.1776 -3.1246 11.9805 0.0000 0.0000 0.0000 -79.2684 -5.7009 23.2791 22.0838 -33.0716 -6.6315 -0.0000 0.0000 -8.3364 20.2859 35.2192 12.0335 -7.1250 0.0000 -0.0000 -17.2673 66.1758 -8.9367 0.0000 0.0000 0.0000 83.9808 -8.4212 20.3638 -23.0781 34.1741 -7.1821 0.0000 -0.0000 -6.2083 -28.1655 14.1668 -7.4656 7.1250 -0.0000 -0.0000 -0.4726 -14.0023 -0.3442
0.6674 18.2584 -4.8916 -3.8080 2.1167 -2.0888 0.0000 0.0000 0.0000 -15.6022 -1.1944 0.3813 1.1388 6.7770 19.0563 0.4974 -6.6310 -12.6959 0.4561 -4.3324 -12.0137 0.0000 0.0000 0.0000 23.3692 -0.1119 -1.6995 -1.1997 -6.9496 19.5662 -0.5024 -2.3545 -14.4535 -0.6349 5.0981 -14.1887 -0.8924 -0.1484 7.8794 4.1935 -0.0914 0.0967 4.8924 0.0176 -4.3179 -15.4847 -6.4103 -21.1472 12.6968 -7.3320 22.7826 6.1824 -3.1072 12.0941 -0.0000 -0.0000 0.0000 -79.4111 -5.6221 23.5996 22.9836 -34.0709 -7.1291 -0.0000 0.0000 -8.9336 19.7746 35.5828 11.8157 -7.1250 0.0000 -0.0000 -18.2546 66.3689 -9.5428 -0.0000 -0.0000 0.0000 83.8539 -8.2303 20.7622 -23.1558 34.2587 -7.2258 0.0000 -0.0000 -5.8077 -28.2601 14.9506 -7.8954 7.1250 -0.0000 -0.0000 -0.4610 -13.1149 -0.3444
0.6637 18.2569 -4.8960 -4.0148 2.1112 -2.0848 0.0000 0.0000 0.0000 -15.3278 -1.1550 0.2858 1.1454 6.7960 19.1123 0.4915 -6.6900 -12.6330 0.4431 -4.2709 -11.8400 0.0000 0.0000 0.0000 23.6603 0.0867 -1.6122 -1.1949 -6.9360 19.5260 -0.4993 -2.5720 -14.5337 -0.6154 5.0207 -13.9677 -0.7654 -0.1566 7.9568 4.2640 -0.0894 0.1890 4.8940 0.0147 -4.2655 -15.4154 -6.4499 -21.4947 12.6220 -7.3446 22.8793 6.1414 -3.1054 12.1959 -0.0000 -0.0000 0.0000 -79.5408 -5.6757 23.9867 23.8542 -35.0097 -7.6227 -0.0000 0.0000 -9.4486 19.7106 34.6642 11.5172 -7.1250 0.0000 -0.0000 -17.3882 65.4879 -8.7260 -0.0000 -0.0000 0.0000 83.8022 -7.8382 21.0148 -23.2477 34.3586 -7.2776 0.0000 -0.0000 -5.4388 -28.5208 15.7328 -8.3823 7.1250 -0.0000 -0.0000 -0.5559 -12.2038 -0.4258
0.6625 18.2558 -4.8990 -4.1442 2.1191 -2.0934 0.0000 0.0000 0.0000 -15.1563 -1.1589 0.2612 1.1487 6.8053 19.1400 0.4900 -6.7559 -12.6244 0.4340 -4.2274 -11.7174 0.0000 0.0000 0.0000 23.8468 0.2215 -1.5800 -1.1948 -6.9357 19.5251 -0.4918 -2.7774 -14.5521 -0.6286 5.0733 -14.1177 -0.6602 -0.1595 7.9570 4.2969 -0.0848 0.2687 4.8669 0.0129 -4.1829 -15.4437 -6.4575 -21.5603 12.6695 -7.3443 22.8345 6.1633 -3.0995 12.1949 -0.0000 0.0000 0.0000 -79.6814 -5.7856 24.2264 24.3702 -35.5533 -7.9208 -0.0000 0.0000 -9.6807 19.9372 32.9109 11.1492 -7.1250 0.0000 -0.0000 -15.5165 63.8795 -7.1860 -0.0000 0.0000 0.0000 83.7938 -7.5179 21.2212 -23.5480 34.6826 -7.4478 0.0000 -0.0000 -5.3747 -28.4733 15.0350 -8.0084 7.1250 -0.0000 -0.0000 -0.5956 -12.9891 -0.4465
0.6709 18.2563 -4.8931 -3.9667 2.1603 -2.0792 0.0000 0.0000 0.0000 -15.4008 -1.2108 0.3109 1.1471 6.8008 19.1265 0.4912 -6.7162 -12.6336 0.4346 -4.2306 -11.7264 0.0000 0.0000 0.0000 23.5978 0.1220 -1.6409 -1.2033 -6.9596 19.5957 -0.4981 -2.6759 -14.5759 -0.6395 5.1161 -14.2400 -0.7462 -0.1853 7.8778 4.2190 -0.1322 0.2843 4.8374 -0.0110 -4.1178 -15.5171 -6.4363 -21.4694 12.7593 -7.3276 22.8237 6.2153 -3.0907 12.1774 0.0000 -0.0000 0.0000 -79.8347 -5.6405 24.4483 25.0664 -36.2718 -8.3292 -0.0000 0.0000 -10.0224 20.0714 31.8859 10.9241 -7.1250 0.0000 -0.0000 -14.5259 62.9241 -6.3923 0.0000 -0.0000 0.0000 83.8104 -7.3098 21.5455 -24.0679 35.2360 -7.7457 0.0000 -0.0000 -5.6690 -28.0689 13.1019 -6.8925 7.1250 -0.0000 -0.0000 -0.5035 -15.2040 -0.3538
0.6805 18.2567 -4.8861 -3.6382 2.2620 -2.0203 0.0000 0.0000 0.0000 -15.8321 -1.3029 0.3592 1.1397 6.7796 19.0639 0.4932 -6.6635 -12.6498 0.4433 -4.2722 -11.8437 0.0000 0.0000 0.0000 23.1597 -0.0360 -1.7852 -1.2171 -6.9980 19.7094 -0.5094 -2.5375 -14.6456 -0.6518 5.1643 -14.3777 -0.9971 -0.2271 7.7346 4.0969 -0.2180 0.2911 4.8587 -0.0517 -4.0219 -15.4407 -6.4089 -21.3369 12.6889 -7.3136 22.7987 6.1752 -3.0900 12.1323 0.0000 0.0000 0.0000 -80.0257 -5.4006 24.5589 25.7313 -36.9422 -8.7257 -0.0000 0.0000 -10.2352 19.8930 33.6287 11.3319 -7.1250 0.0000 -0.0000 -16.1972 64.5554 -7.7641 0.0000 0.0000 0.0000 83.8429 -7.2704 21.8781 -24.7541 35.9516 -8.1451 0.0000 -0.0000 -6.1103 -27.6335 11.2671 -5.8404 7.1250 -0.0000 -0.0000 -0.3518 -17.3065 -0.2312
0.6868 18.2557 -4.8884 -3.4856 2.2028 -1.9413 0.0000 0.0000 0.0000 -16.0407 -1.3257 0.3332 1.1316 6.7563 18.9954 0.4953 -6.5877 -12.6642 0.4473 -4.2910 -11.8969 0.0000 0.0000 0.0000 22.9582 0.0238 -1.9284 -1.2279 -7.0279 19.7982 -0.5079 -2.5116 -14.6117 -0.6722 5.2429 -14.6026 -1.1397 -0.2032 7.6727 4.0523 -0.2012 0.2899 4.8902 -0.0416 -3.9895 -15.3456 -6.4160 -21.2352 12.5641 -7.3342 22.7641 6.1032 -3.1084 12.0921 0.0000 0.0000 0.0000 -80.3090 -5.3757 24.5778 26.0478 -37.2558 -8.9166 -0.0000 0.0000 -10.1698 19.5908 34.9244 11.5166 -7.1250 0.0000 -0.0000 -17.7884 65.6990 -9.0190 0.0000 0.0000 0.0000 83.8441 -7.2799 22.1147 -25.5740 36.7850 -8.6313 0.0000 -0.0000 -6.7745 -27.0693 8.6716 -4.4060 7.1250 -0.0000 -0.0000 -0.1238 -20.2607 -0.0733
0.6981 18.2537 -4.8897 -3.4436 2.1551 -1.8780 0.0000 0.0000 0.0000 -16.1431 -1.3527 0.2919 1.1292 6.7493 18.9747 0.4990 -6.4909 -12.6959 0.4533 -4.3191 -11.9763 0.0000 0.0000 0.0000 22.8509 0.0033 -2.0148 -1.2282 -7.0286 19.8002 -0.5055 -2.4000 -14.5182 -0.6812 5.2772 -14.7010 -1.0927 -0.1943 7.6922 4.0280 -0.1849 0.2486 4.8368 -0.0331 -4.0452 -15.4055 -6.4333 -21.1263 12.5790 -7.3584 22.7472 6.1147 -3.1262 12.0717 -0.0000 0.0000 0.0000 -80.5894 -5.2923 24.7703 26.4127 -37.6134 -9.1384 -0.0000 0.0000 -10.2649 19.0891 31.5609 10.2669 -7.1250 0.0000 -0.0000 -15.3860 62.3556 -6.5740 -0.0000 0.0000 0.0000 83.8189 -7.3123 22.1769 -25.8598 37.0699 -8.8030 0.0000 -0.0000 -6.7485 -27.0320 8.2403 -4.1825 7.1250 -0.0000 -0.0000 -0.1209 -20.7454 -0.0702
0.7099 18.2536 -4.8838 -3.5511 2.3024 -1.8893 0.0000 0.0000 0.0000 -16.0689 -1.4328 0.3238 1.1328 6.7596 19.0051 0.5011 -6.5186 -12.7251 0.4600 -4.3507 -12.0655 0.0000 0.0000 0.0000 22.9113 -0.2042 -1.9813 -1.2190 -7.0033 19.7252 -0.5106 -2.3355 -14.5498 -0.6860 5.2953 -14.7527 -0.8748 -0.2617 7.7232 4.0341 -0.2527 0.1760 4.7280 -0.0686 -4.1329 -15.5744 -6.4167 -20.7509 12.6815 -7.3602 22.6846 6.1831 -3.1415 11.9864 0.0000 0.0000 0.0000 -80.7990 -4.8901 25.2373 27.0210 -38.1992 -9.5121 -0.0000 0.0000 -10.8004 20.8075 34.9310 12.2757 -7.1250 0.0000 -0.0000 -16.3541 66.0534 -8.4068 0.0000 0.0000 0.0000 83.7719 -7.5363 22.2662 -25.6940 36.9050 -8.7033 0.0000 -0.0000 -6.0526 -27.5789 10.3103 -5.3407 7.1250 -0.0000 -0.0000 -0.3826 -18.3819 -0.2424
0.7161 18.2558 -4.8783 -3.8377 2.3541 -1.9636 0.0000 0.0000 0.0000 -15.7540 -1.4301 0.3819 1.1396 6.7794 19.0633 0.5014 -6.6044 -12.7392 0.4496 -4.3017 -11.9271 0.0000 0.0000 0.0000 23.2254 -0.2690 -1.8302 -1.2069 -6.9697 19.6257 -0.5108 -2.4057 -14.5907 -0.6971 5.3370 -14.8723 -0.5387 -0.2971 7.8144 4.0922 -0.2638 0.1123 4.6015 -0.0778 -4.2509 -15.7129 -6.4150 -20.3746 12.7611 -7.3900 22.6353 6.2327 -3.1696 11.9084 0.0000 -0.0000 0.0000 -81.0151 -4.5075 25.7549 27.6339 -38.7770 -9.8935 -0.0000 0.0000 -11.3437 20.4205 33.1235 11.4996 -7.1250 0.0000 -0.0000 -15.1381 64.2148 -7.1250 0.0000 -0.0000 0.0000 83.7397 -7.7310 22.4020 -25.6378 36.8488 -8.6695 0.0000 -0.0000 -5.6537 -27.9405 11.4811 -6.0263 7.1250 -0.0000 -0.0000 -0.5493 -17.0324 -0.3643
0.7195 18.2566 -4.8763 -3.9768 2.2714 -2.0298 0.0000 0.0000 0.0000 -15.5936 -1.3411 0.4116 1.1447 6.7940 19.1066 0.5018 -6.6563 -12.7510 0.4385 -4.2490 -11.7781 0.0000 0.0000 0.0000 23.3926 -0.1866 -1.6794 -1.1981 -6.9450 19.5526 -0.5049 -2.4864 -14.5577 -0.6965 5.3350 -14.8665 -0.3849 -0.2896 7.9901 4.1155 -0.2342 0.0747 4.5388 -0.0637 -4.3920 -15.6742 -6.4398 -20.4905 12.6931 -7.4140 22.7776 6.2005 -3.1829 11.9854 -0.0000 0.0000 0.0000 -81.2874 -4.3450 26.0086 28.0696 -39.1803 -10.1677 -0.0000 0.0000 -11.4045 19.3802 30.5805 10.1463 -7.1250 0.0000 -0.0000 -14.3301 61.4773 -5.8148 -0.0000 0.0000 0.0000 83.7200 -7.7472 22.5873 -25.7508 36.9615 -8.7374 0.0000 -0.0000 -5.6035 -28.0769 11.4118 -6.0249 7.1250 -0.0000 -0.0000 -0.6497 -17.0943 -0.4301
0.7225 18.2544 -4.8730 -3.9158 2.2486 -2.0260 0.0000 0.0000 0.0000 -15.6570 -1.2627 0.3846 1.1458 6.7971 19.1156 0.5021 -6.7436 -12.7673 0.4558 -4.3311 -12.0102 0.0000 0.0000 0.0000 23.3318 -0.1149 -1.6338 -1.1984 -6.9459 19.5550 -0.5042 -2.5445 -14.5820 -0.6864 5.2969 -14.7574 -0.4697 -0.2934 8.0425 4.0957 -0.2467 0.0638 4.5688 -0.0677 -4.4316 -15.5520 -6.4534 -20.6870 12.5356 -7.4125 22.9324 6.1225 -3.1853 12.0708 -0.0000 0.0000 0.0000 -81.5930 -4.2768 26.0990 28.4875 -39.5612 -10.4327 -0.0000 0.0000 -11.1384 19.3324 30.9278 10.2213 -7.1250 0.0000 -0.0000 -14.6352 61.8037 -6.0548 -0.0000 0.0000 0.0000 83.7109 -7.7434 22.7524 -25.9621 37.1712 -8.8647 0.0000 -0.0000 -5.7548 -28.0475 11.0878 -5.8500 7.1250 -0.0000 -0.0000 -0.6545 -17.4609 -0.4280
0.7264 18.2524 -4.8680 -3.7749 2.2455 -1.9788 0.0000 0.0000 0.0000 -15.8258 -1.2458 0.3402 1.1452 6.7953 19.1102 0.5057 -6.7684 -12.8132 0.4774 -4.4311 -12.2927 0.0000 0.0000 0.0000 23.1650 -0.0529 -1.6778 -1.2090 -6.9755 19.6427 -0.5102 -2.5151 -14.6429 -0.6746 5.2521 -14.6291 -0.6382 -0.3019 7.9486 4.0506 -0.2777 0.0680 4.6191 -0.0808 -4.3711 -15.6044 -6.4189 -20.4491 12.5712 -7.3857 22.8478 6.1477 -3.1805 11.9904 -0.0000 0.0000 0.0000 -81.9225 -4.0551 26.2392 29.1255 -40.1319 -10.8415 -0.0000 0.0000 -11.0369 19.2865 31.8305 10.4566 -7.1250 0.0000 -0.0000 -15.3743 62.6667 -6.6816 -0.0000 0.0000 0.0000 83.7205 -7.7574 22.8171 -26.0979 37.3052 -8.9469 0.0000 -0.0000 -5.9164 -27.7961 11.2187 -5.8558 7.1250 -0.0000 -0.0000 -0.4689 -17.3424 -0.3078
